<svg xmlns="http://www.w3.org/2000/svg" xmlns:xlink="http://www.w3.org/1999/xlink" version="1.1" width="256" height="256" viewBox="0 0 256 256" xml:space="preserve">

<defs>
</defs>
<g style="stroke: none; stroke-width: 0; stroke-dasharray: none; stroke-linecap: butt; stroke-linejoin: miter; stroke-miterlimit: 10; fill: rgb(255,255,255); fill-rule: nonzero; opacity: 1;" transform="translate(0 -2.842170943040401e-14) scale(2.81 2.81)" >
	<path d="M 45 90 C 20.187 90 0 69.814 0 45 C 0 20.187 20.187 0 45 0 c 24.814 0 45 20.187 45 45 C 90 69.814 69.814 90 45 90 z M 45 5.625 C 23.289 5.625 5.625 23.289 5.625 45 c 0 21.712 17.664 39.375 39.375 39.375 c 21.712 0 39.375 -17.663 39.375 -39.375 C 84.375 23.289 66.712 5.625 45 5.625 z" style="stroke: none; stroke-width: 1; stroke-dasharray: none; stroke-linecap: butt; stroke-linejoin: miter; stroke-miterlimit: 10; fill: rgb(255,255,255); fill-rule: nonzero; opacity: 1;" transform=" matrix(1 0 0 1 0 0) " stroke-linecap="round" />
</g>
<g style="stroke: none; stroke-width: 0; stroke-dasharray: none; stroke-linecap: butt; stroke-linejoin: miter; stroke-miterlimit: 10; fill: none; fill-rule: nonzero; opacity: 1;" transform="translate(46.17984832069338 46.17984832069335) scale(1.82 1.82)" >
	<path d="M 45 90 c -2.907 0 -5.812 -0.298 -8.635 -0.886 c -1.081 -0.225 -1.775 -1.284 -1.55 -2.365 c 0.225 -1.082 1.278 -1.777 2.366 -1.551 C 39.736 85.73 42.367 86 45 86 c 13.822 0 26.462 -7.408 33.243 -19.406 c -3.807 -6.72 -9.671 -12.236 -16.615 -15.604 c -1.548 -0.753 -3.381 -0.731 -5.023 0.061 C 52.964 52.8 49.06 53.687 45 53.687 c -4.06 0 -7.964 -0.887 -11.604 -2.636 c -1.643 -0.789 -3.475 -0.813 -5.023 -0.061 c -6.943 3.367 -12.808 8.883 -16.616 15.603 c 1.018 1.798 2.186 3.52 3.48 5.13 c 0.692 0.86 0.556 2.119 -0.305 2.812 c -0.863 0.692 -2.121 0.556 -2.812 -0.306 c -1.676 -2.084 -3.16 -4.339 -4.411 -6.7 l -0.496 -0.936 l 0.496 -0.936 c 4.178 -7.889 10.896 -14.376 18.918 -18.267 c 2.654 -1.286 5.752 -1.266 8.501 0.055 c 3.095 1.487 6.417 2.241 9.872 2.241 c 3.455 0 6.777 -0.754 9.872 -2.241 c 2.752 -1.321 5.85 -1.341 8.502 -0.055 c 8.022 3.891 14.74 10.378 18.917 18.267 l 0.495 0.936 l -0.495 0.936 C 74.952 81.39 60.663 90 45 90 z" style="stroke: none; stroke-width: 1; stroke-dasharray: none; stroke-linecap: butt; stroke-linejoin: miter; stroke-miterlimit: 10; fill: rgb(255,255,255); fill-rule: nonzero; opacity: 1;" transform=" matrix(1 0 0 1 0 0) " stroke-linecap="round" />
	<path d="M 45 42.645 c -11.757 0 -21.323 -9.565 -21.323 -21.322 S 33.243 0 45 0 c 11.757 0 21.322 9.565 21.322 21.323 S 56.757 42.645 45 42.645 z M 45 4 c -9.552 0 -17.323 7.771 -17.323 17.323 S 35.448 38.645 45 38.645 s 17.322 -7.771 17.322 -17.322 S 54.552 4 45 4 z" style="stroke: none; stroke-width: 1; stroke-dasharray: none; stroke-linecap: butt; stroke-linejoin: miter; stroke-miterlimit: 10; fill: rgb(255,255,255); fill-rule: nonzero; opacity: 1;" transform=" matrix(1 0 0 1 0 0) " stroke-linecap="round" />
	<path d="M 39.306 74.636 l -7.827 -7.827 c -0.093 -0.093 -0.196 -0.177 -0.306 -0.25 c -0.05 -0.034 -0.105 -0.057 -0.158 -0.086 c -0.062 -0.034 -0.121 -0.071 -0.186 -0.098 c -0.067 -0.028 -0.137 -0.044 -0.206 -0.064 c -0.056 -0.016 -0.11 -0.038 -0.168 -0.05 c -0.259 -0.051 -0.525 -0.051 -0.784 0 c -0.058 0.012 -0.112 0.033 -0.168 0.05 c -0.069 0.02 -0.138 0.036 -0.205 0.064 c -0.066 0.027 -0.125 0.065 -0.187 0.099 c -0.052 0.029 -0.107 0.052 -0.157 0.085 c -0.11 0.074 -0.213 0.157 -0.306 0.25 l -7.827 7.827 c -0.781 0.781 -0.781 2.047 0 2.828 c 0.78 0.781 2.048 0.781 2.828 0 l 4.414 -4.414 v 4.841 c 0 4.385 -3.567 7.952 -7.952 7.952 H 9.476 c -1.104 0 -2 0.896 -2 2 s 0.896 2 2 2 h 10.636 c 6.59 0 11.952 -5.361 11.952 -11.952 V 73.05 l 4.414 4.414 c 0.39 0.391 0.902 0.586 1.414 0.586 s 1.024 -0.195 1.414 -0.586 C 40.087 76.683 40.087 75.417 39.306 74.636 z" style="stroke: none; stroke-width: 1; stroke-dasharray: none; stroke-linecap: butt; stroke-linejoin: miter; stroke-miterlimit: 10; fill: rgb(255,255,255); fill-rule: nonzero; opacity: 1;" transform=" matrix(1 0 0 1 0 0) " stroke-linecap="round" />
</g>
</svg>